Coordinates
version=1
nRows=36
nColumns=33
inDegrees=yes

Units are S.I. units (second, meters, Newtons, ...)
Angles are in degrees.

endheader
time	ground_thorax_rot_x	ground_thorax_rot_y	ground_thorax_rot_z	ground_thorax_tx	ground_thorax_ty	ground_thorax_tz	clav_prot_r	clav_elev_r	scapula_abduction_r	scapula_elevation_r	scapula_upward_rot_r	scapula_winging_r	shoulder_elv_r	plane_of_elev_r	axial_rot_r	elbow_flexion_r	pro_sup_r	wrist_flex_r	wrist_dev_r	clav_prot_l	clav_elev_l	scapula_abduction_l	scapula_elevation_l	scapula_upward_rot_l	scapula_winging_l	shoulder_elv_l	plane_of_elev_l	axial_rot_l	elbow_flexion_l	pro_sup_l	wrist_flex_l	wrist_dev_l	
4.8000	-3.220652	3.901243	9.706938	-0.093215	1.027880	0.013275	14.556728	-12.337295	31.379778	-9.333267	11.770329	-8.505171	-14.191229	-63.319001	117.110792	-63.555015	-170.843574	13.258952	0.407053	19.348065	-8.013143	-28.275790	-11.061151	-29.526725	7.257482	61.538964	-8.522875	12.674595	42.776002	12.015283	19.072100	-11.074673	
4.8100	-3.172602	3.880894	9.806740	-0.093661	1.028109	0.013161	14.297758	-12.412755	30.477002	-9.127509	10.955724	-8.102767	-15.077852	-64.067284	116.684827	-64.991875	-171.153302	14.509112	-0.318889	18.946940	-7.723546	-27.630782	-11.561849	-29.988694	6.884976	61.666286	-9.648390	12.228799	45.036188	11.334963	19.288544	-11.062189	
4.8200	-3.111413	3.857109	9.902893	-0.094110	1.028328	0.013035	14.027069	-12.460645	29.561596	-8.894051	10.142660	-7.707555	-15.972492	-64.837151	116.258889	-66.379339	-171.365195	15.818862	-1.071586	18.541563	-7.417584	-26.979842	-12.075225	-30.442904	6.509298	61.767919	-10.795300	11.761177	47.272887	10.667121	19.390636	-11.078717	
4.8300	-3.040963	3.831493	9.986611	-0.094562	1.028543	0.012909	13.745101	-12.484905	28.636326	-8.637283	9.333887	-7.318970	-16.882622	-65.619551	115.820376	-67.707832	-171.442263	17.220773	-1.872658	18.131324	-7.097978	-26.320104	-12.592840	-30.876788	6.131200	61.852051	-11.965438	11.272580	49.466673	10.028504	19.343113	-11.148983	
4.8400	-2.963078	3.800564	10.069031	-0.095025	1.028752	0.012788	13.458348	-12.479880	27.711717	-8.353086	8.531632	-6.944841	-17.813168	-66.408022	115.370865	-68.966031	-171.385338	18.676355	-2.704636	17.719130	-6.766235	-25.655974	-13.118343	-31.300475	5.750411	61.914177	-13.154098	10.782146	51.601828	9.445247	19.178381	-11.295226	
4.8500	-2.887702	3.769752	10.140167	-0.095488	1.028991	0.012674	13.162310	-12.475572	26.778171	-8.066693	7.732272	-6.565104	-18.787207	-67.200312	114.867816	-70.137802	-171.169184	20.257028	-3.625608	17.295417	-6.432186	-24.968363	-13.633276	-31.692611	5.359541	61.981395	-14.384173	10.248396	53.667170	8.912983	18.873752	-11.525832	
4.8600	-2.811059	3.734983	10.204958	-0.095932	1.029249	0.012563	12.848518	-12.456004	25.837855	-7.775335	6.965672	-6.187853	-19.826824	-68.001008	114.313613	-71.204748	-170.785154	21.928013	-4.617996	16.855595	-6.083885	-24.248636	-14.149089	-32.053581	4.954828	62.032410	-15.635358	9.686734	55.645006	8.440139	18.435982	-11.855502	
4.8700	-2.740115	3.700291	10.260430	-0.096356	1.029553	0.012456	12.520077	-12.441181	24.891710	-7.494447	6.225654	-5.803035	-20.949626	-68.802316	113.673593	-72.155327	-170.231424	23.712299	-5.708874	16.395378	-5.730923	-23.487654	-14.652686	-32.373327	4.532004	62.088450	-16.926449	9.062480	57.530595	8.019873	17.862464	-12.280981	
4.8800	-2.661257	3.656007	10.315850	-0.096766	1.029845	0.012356	12.184641	-12.380435	23.966907	-7.188731	5.538141	-5.447773	-22.143636	-69.591181	112.988890	-72.990870	-169.501199	25.495777	-6.818651	15.926967	-5.357799	-22.708188	-15.168082	-32.674307	4.101808	62.109837	-18.211606	8.441828	59.302138	7.694437	17.165480	-12.833998	
4.8900	-2.579879	3.606210	10.373946	-0.097167	1.030149	0.012268	11.854338	-12.292509	23.070061	-6.867077	4.881931	-5.115642	-23.411526	-70.351974	112.227880	-73.705134	-168.588623	27.290677	-7.971100	15.451091	-4.980850	-21.910148	-15.679597	-32.954483	3.663621	62.121574	-19.514220	7.791565	60.958851	7.487001	16.350009	-13.525593	
4.9000	-2.487812	3.541227	10.433335	-0.097562	1.030413	0.012191	11.533783	-12.142130	22.220394	-6.506537	4.279136	-4.831486	-24.716798	-71.075716	111.457680	-74.309377	-167.545552	28.984529	-9.084032	14.982085	-4.588048	-21.120438	-16.206843	-33.233707	3.229001	62.089496	-20.793919	7.183932	62.493582	7.420363	15.467727	-14.341191	
4.9100	-2.389815	3.468978	10.498377	-0.097953	1.030674	0.012130	11.232185	-11.950919	21.417626	-6.116176	3.702495	-4.585126	-26.057898	-71.749297	110.651097	-74.792968	-166.359928	30.614795	-10.195114	14.518485	-4.196250	-20.334124	-16.728697	-33.499962	2.797105	62.035614	-22.075753	6.583373	63.899418	7.542407	14.512588	-15.307638	
4.9200	-2.284217	3.381654	10.559624	-0.098336	1.030903	0.012081	10.951396	-11.708458	20.672683	-5.693486	3.168671	-4.385162	-27.407662	-72.372924	109.855913	-75.167861	-165.089589	32.120654	-11.258219	14.068922	-3.799419	-19.566942	-17.253387	-33.759916	2.375046	61.939480	-23.337404	6.036657	65.177996	7.854284	13.529008	-16.388643	
4.9300	-2.176374	3.290906	10.619629	-0.098681	1.031152	0.012040	10.682715	-11.445555	19.969775	-5.266928	2.677798	-4.210177	-28.828156	-72.953219	108.993270	-75.401142	-163.654174	33.616558	-12.372585	13.613285	-3.406353	-18.776990	-17.753879	-33.971285	1.949350	61.821930	-24.611281	5.464474	66.308894	8.413112	12.445443	-17.643041	
4.9400	-2.063565	3.183648	10.663165	-0.098975	1.031406	0.011998	10.427804	-11.157455	19.332711	-4.849921	2.273068	-4.071515	-30.362788	-73.497346	108.044866	-75.500509	-162.074771	35.058852	-13.524273	13.148547	-3.008586	-17.956714	-18.232388	-34.121824	1.518672	61.659409	-25.885375	4.893544	67.292456	9.205943	11.276840	-19.019456	
4.9500	-1.950511	3.069146	10.694445	-0.099228	1.031671	0.011956	10.192240	-10.856976	18.760637	-4.446644	1.935032	-3.963055	-32.007863	-73.994725	106.995832	-75.461137	-160.363216	36.466419	-14.716399	12.678633	-2.612711	-17.113615	-18.684485	-34.215673	1.085784	61.469121	-27.161823	4.296945	68.130271	10.202472	10.025445	-20.470456	
4.9600	-1.838789	2.942631	10.710028	-0.099458	1.031913	0.011914	9.984710	-10.542020	18.270690	-4.058080	1.670034	-3.892364	-33.760894	-74.432696	105.844342	-75.297592	-158.567569	37.811053	-15.905142	12.216596	-2.214126	-16.273680	-19.124317	-34.275104	0.659921	61.252009	-28.417826	3.690940	68.836883	11.363487	8.725844	-21.842461	
4.9700	-1.734889	2.815931	10.718615	-0.099678	1.032129	0.011875	9.798957	-10.225211	17.835511	-3.682161	1.444014	-3.841933	-35.552393	-74.806583	104.645072	-75.014683	-156.758675	39.098191	-17.057258	11.775272	-1.821008	-15.465271	-19.557404	-34.329708	0.248923	61.026301	-29.640582	3.071110	69.416912	12.605344	7.416279	-23.038479	
4.9800	-1.636430	2.689045	10.717636	-0.099894	1.032312	0.011844	9.637080	-9.901540	17.467915	-3.322867	1.276567	-3.820695	-37.416101	-75.104238	103.359588	-74.614440	-154.923671	40.317278	-18.164833	11.359858	-1.431587	-14.697515	-19.985986	-34.381917	-0.142008	60.786775	-30.809219	2.444521	69.869088	13.948689	6.079187	-23.944593	
4.9900	-1.547174	2.570493	10.717571	-0.100126	1.032454	0.011820	9.494404	-9.586070	17.133027	-2.971777	1.112866	-3.806506	-39.219173	-75.333448	102.106535	-74.121338	-153.195548	41.424713	-19.163490	10.987941	-1.063070	-14.010802	-20.412884	-34.474578	-0.501869	60.541218	-31.910362	1.843832	70.197944	15.258392	4.807561	-24.526728	
5.0000	-1.462268	2.466452	10.716064	-0.100352	1.032574	0.011810	9.366775	-9.281137	16.838872	-2.643593	0.982970	-3.803205	-41.055832	-75.486672	100.773474	-73.521682	-151.457994	42.483779	-20.117139	10.645097	-0.711223	-13.373728	-20.825307	-34.571279	-0.838068	60.286889	-32.934554	1.235619	70.371147	16.622876	3.524712	-24.830108	
5.0100	-1.381842	2.372098	10.718754	-0.100579	1.032665	0.011806	9.248388	-8.993681	16.561340	-2.332175	0.856467	-3.797419	-42.796425	-75.589649	99.500985	-72.845188	-149.846595	43.409999	-20.955268	10.339592	-0.388589	-12.808426	-21.224005	-34.700561	-1.146152	60.009909	-33.873196	0.682779	70.381996	17.903252	2.354114	-24.951195	
5.0200	-1.301077	2.290297	10.717724	-0.100781	1.032756	0.011808	9.137787	-8.729515	16.310864	-2.053143	0.758514	-3.792363	-44.497836	-75.636632	98.209809	-72.078018	-148.269200	44.248065	-21.738083	10.052798	-0.097884	-12.276841	-21.587729	-34.822185	-1.435488	59.708625	-34.727378	0.161362	70.205559	19.164967	1.248418	-25.000000	
5.0300	-1.230479	2.219808	10.714422	-0.100974	1.032809	0.011812	9.030846	-8.488164	16.070952	-1.798440	0.669909	-3.782019	-46.044521	-75.633802	97.029572	-71.247477	-146.835765	44.940425	-22.377799	9.801509	0.171024	-11.811834	-21.937688	-34.961814	-1.697532	59.379860	-35.476778	-0.269564	69.860265	20.303140	0.336888	-25.000000	
5.0400	-1.169682	2.170050	10.710439	-0.101141	1.032848	0.011823	8.926384	-8.278440	15.844565	-1.579561	0.599152	-3.764988	-47.498220	-75.569032	95.867657	-70.334491	-145.430726	45.584015	-22.950268	9.570461	0.417515	-11.381402	-22.256691	-35.083976	-1.939053	59.041521	-36.131613	-0.663348	69.342430	21.411321	-0.460410	-25.000000	
5.0500	-1.120633	2.129901	10.715979	-0.101300	1.032858	0.011837	8.824572	-8.101918	15.622488	-1.389343	0.525348	-3.736737	-48.771501	-75.469053	94.834397	-69.368868	-144.154747	46.120788	-23.403522	9.368074	0.633983	-11.007036	-22.549741	-35.216748	-2.154800	58.691017	-36.700146	-0.975264	68.684008	22.398042	-1.067025	-25.000000	
5.0600	-1.080710	2.103245	10.726424	-0.101438	1.032851	0.011852	8.728952	-7.960297	15.424264	-1.240582	0.475459	-3.706091	-49.961414	-75.326398	93.818659	-68.341582	-142.878757	46.605591	-23.804305	9.184365	0.823045	-10.664859	-22.802612	-35.324336	-2.348406	58.325853	-37.188860	-1.231105	67.900398	23.345474	-1.553610	-25.000000	
5.0700	-1.048912	2.084788	10.748058	-0.101561	1.032815	0.011869	8.641074	-7.851963	15.249251	-1.128888	0.442224	-3.673541	-51.057426	-75.154343	92.841010	-67.275156	-141.630461	47.029094	-24.149523	9.019233	0.982807	-10.356593	-23.016722	-35.414357	-2.520071	57.953073	-37.606783	-1.426507	67.018539	24.234756	-1.921319	-25.000000	
5.0800	-1.017725	2.074151	10.778279	-0.101675	1.032767	0.011883	8.569515	-7.781490	15.106519	-1.052801	0.412545	-3.640622	-52.052587	-74.959325	91.898623	-66.184026	-140.431092	47.377523	-24.448171	8.869339	1.097661	-10.079909	-23.178516	-35.491113	-2.668710	57.578244	-37.956716	-1.561297	66.061550	25.050974	-2.184387	-25.000000	
5.0900	-0.984005	2.063808	10.819212	-0.101796	1.032717	0.011891	8.512634	-7.751947	14.979369	-1.002544	0.356434	-3.598132	-52.848306	-74.762629	91.097638	-65.097407	-139.409791	47.611621	-24.667127	8.736097	1.150691	-9.845988	-23.285619	-35.585731	-2.792705	57.219174	-38.245562	-1.628464	65.058511	25.720837	-2.322010	-25.000000	
5.1000	-0.957049	2.059889	10.849931	-0.101908	1.032678	0.011887	8.462548	-7.764910	14.873901	-0.996937	0.314981	-3.550611	-53.495639	-74.554007	90.390530	-64.002443	-138.453902	47.786873	-24.815800	8.618701	1.166004	-9.643904	-23.347658	-35.667459	-2.894293	56.865258	-38.447590	-1.617886	64.021310	26.299639	-2.338835	-25.000000	
5.1100	-0.935593	2.063939	10.871182	-0.102004	1.032646	0.011880	8.412772	-7.815067	14.776162	-1.029083	0.283020	-3.493945	-53.989780	-74.335478	89.783922	-62.917411	-137.590386	47.928553	-24.911761	8.512540	1.146154	-9.465574	-23.367637	-35.737284	-2.977352	56.538393	-38.571579	-1.564204	62.975199	26.806435	-2.287088	-25.000000	
5.1200	-0.920258	2.076168	10.884702	-0.102085	1.032617	0.011866	8.364474	-7.898538	14.687943	-1.095621	0.260825	-3.430231	-54.353895	-74.114517	89.269787	-61.857371	-136.810199	48.044272	-24.964102	8.416585	1.097067	-9.307520	-23.350110	-35.792039	-3.043632	56.239157	-38.624840	-1.468777	61.948580	27.248003	-2.182696	-25.000000	
5.1300	-0.902816	2.088093	10.903919	-0.102161	1.032580	0.011851	8.322079	-8.008827	14.601208	-1.177143	0.216280	-3.356390	-54.555996	-73.906964	88.887075	-60.862133	-136.214786	48.099244	-24.976803	8.329540	1.006624	-9.173948	-23.294777	-35.856553	-3.094473	55.981577	-38.635329	-1.351108	60.974131	27.583396	-2.049865	-25.000000	
5.1400	-0.893262	2.102657	10.920324	-0.102219	1.032528	0.011832	8.282702	-8.140725	14.531021	-1.287050	0.192312	-3.282679	-54.712480	-73.705169	88.539390	-59.924131	-135.662819	48.152946	-24.988490	8.248506	0.906531	-9.047954	-23.217091	-35.895885	-3.135591	55.753202	-38.599565	-1.217111	60.064440	27.893235	-1.929312	-25.000000	
5.1500	-0.883112	2.114416	10.943034	-0.102270	1.032459	0.011813	8.250537	-8.289632	14.467678	-1.406474	0.154083	-3.204608	-54.779515	-73.520263	88.272718	-59.071568	-135.256987	48.167115	-24.996178	8.172464	0.781533	-8.935095	-23.114733	-35.937117	-3.167668	55.566405	-38.541816	-1.082035	59.237230	28.131733	-1.832977	-25.000000	
